<?xml version="1.0" encoding="utf-8"?>
<!-- Generator: Adobe Illustrator 16.0.0, SVG Export Plug-In . SVG Version: 6.00 Build 0)  -->
<!DOCTYPE svg PUBLIC "-//W3C//DTD SVG 1.1//EN" "http://www.w3.org/Graphics/SVG/1.1/DTD/svg11.dtd">
<svg version="1.1" id="bubble_2_1_" xmlns="http://www.w3.org/2000/svg" xmlns:xlink="http://www.w3.org/1999/xlink" x="0px"
	 y="0px" width="22px" height="22px" viewBox="0 0 22 22" enable-background="new 0 0 22 22" xml:space="preserve">
<g id="bubble_2">
	<g>
		<path fill="#FFFFFF" d="M10.75,0.2c-5.799,0-10.5,4.23-10.5,9.45c0,5.219,4.701,9.449,10.5,9.449v2.8c0,0,6.39-4.615,7.505-5.641
			c1.853-1.704,2.995-4.036,2.995-6.608C21.25,4.431,16.549,0.2,10.75,0.2z M5.15,11.399c-0.773,0-1.4-0.626-1.4-1.399
			s0.626-1.4,1.4-1.4s1.4,0.627,1.4,1.4S5.923,11.399,5.15,11.399z M10.75,11.399c-0.773,0-1.4-0.626-1.4-1.399s0.626-1.4,1.4-1.4
			s1.4,0.627,1.4,1.4S11.523,11.399,10.75,11.399z M16.35,11.399c-0.773,0-1.4-0.626-1.4-1.399s0.627-1.4,1.4-1.4s1.4,0.627,1.4,1.4
			S17.123,11.399,16.35,11.399z"/>
	</g>
</g>
</svg>
