<?xml version="1.0" encoding="utf-8"?>
<!-- Generator: Adobe Illustrator 16.0.0, SVG Export Plug-In . SVG Version: 6.00 Build 0)  -->
<!DOCTYPE svg PUBLIC "-//W3C//DTD SVG 1.1//EN" "http://www.w3.org/Graphics/SVG/1.1/DTD/svg11.dtd">
<svg version="1.1" id="grid_1_" xmlns="http://www.w3.org/2000/svg" xmlns:xlink="http://www.w3.org/1999/xlink" x="0px" y="0px"
	 width="22px" height="22px" viewBox="0 0 22 22" enable-background="new 0 0 22 22" xml:space="preserve">
<g id="grid">
	<g>
		<path fill="#FFFFFF" d="M13.05,0.2h-4.2c-0.387,0-0.7,0.313-0.7,0.7V5.1c0,0.387,0.313,0.7,0.7,0.7h4.2c0.387,0,0.7-0.313,0.7-0.7
			V0.9C13.75,0.514,13.437,0.2,13.05,0.2z M20.75,0.2h-4.2c-0.387,0-0.7,0.313-0.7,0.7V5.1c0,0.387,0.313,0.7,0.7,0.7h4.2
			c0.387,0,0.699-0.313,0.699-0.7V0.9C21.449,0.514,21.137,0.2,20.75,0.2z M5.35,0.2h-4.2c-0.387,0-0.7,0.313-0.7,0.7V5.1
			c0,0.387,0.313,0.7,0.7,0.7h4.2c0.386,0,0.7-0.313,0.7-0.7V0.9C6.05,0.514,5.736,0.2,5.35,0.2z M13.05,7.9h-4.2
			c-0.387,0-0.7,0.312-0.7,0.699v4.2c0,0.387,0.313,0.7,0.7,0.7h4.2c0.387,0,0.7-0.313,0.7-0.7V8.6
			C13.75,8.213,13.437,7.9,13.05,7.9z M20.75,7.9h-4.2c-0.387,0-0.7,0.312-0.7,0.699v4.2c0,0.387,0.313,0.7,0.7,0.7h4.2
			c0.387,0,0.699-0.313,0.699-0.7V8.6C21.449,8.213,21.137,7.9,20.75,7.9z M5.35,7.9h-4.2c-0.387,0-0.7,0.312-0.7,0.699v4.2
			c0,0.387,0.313,0.7,0.7,0.7h4.2c0.386,0,0.7-0.313,0.7-0.7V8.6C6.05,8.213,5.736,7.9,5.35,7.9z M13.05,15.6h-4.2
			c-0.387,0-0.7,0.313-0.7,0.7v4.2c0,0.387,0.313,0.7,0.7,0.7h4.2c0.387,0,0.7-0.313,0.7-0.7v-4.2
			C13.75,15.913,13.437,15.6,13.05,15.6z M20.75,15.6h-4.2c-0.387,0-0.7,0.313-0.7,0.7v4.2c0,0.387,0.313,0.7,0.7,0.7h4.2
			c0.387,0,0.699-0.313,0.699-0.7v-4.2C21.449,15.913,21.137,15.6,20.75,15.6z M5.35,15.6h-4.2c-0.387,0-0.7,0.313-0.7,0.7v4.2
			c0,0.387,0.313,0.7,0.7,0.7h4.2c0.386,0,0.7-0.313,0.7-0.7v-4.2C6.05,15.913,5.736,15.6,5.35,15.6z"/>
	</g>
</g>
</svg>
