<?xml version="1.0" encoding="utf-8"?>
<!-- Generator: Adobe Illustrator 16.0.0, SVG Export Plug-In . SVG Version: 6.00 Build 0)  -->
<!DOCTYPE svg PUBLIC "-//W3C//DTD SVG 1.1//EN" "http://www.w3.org/Graphics/SVG/1.1/DTD/svg11.dtd">
<svg version="1.1" id="power_1_" xmlns="http://www.w3.org/2000/svg" xmlns:xlink="http://www.w3.org/1999/xlink" x="0px" y="0px"
	 width="16px" height="16px" viewBox="0 0 16 16" enable-background="new 0 0 16 16" xml:space="preserve">
<g id="power">
	<g>
		<path fill="#FFFFFF" d="M12.727,2.046l-1.249,2.58c1.021,0.907,1.672,2.196,1.672,3.641c0,2.741-2.307,4.964-5.153,4.964
			c-2.846,0-5.153-2.223-5.153-4.964c0-1.444,0.651-2.733,1.673-3.641l-1.25-2.58C1.28,3.451-0.015,5.71-0.015,8.267
			c0,4.263,3.587,7.719,8.012,7.719c4.425,0,8.012-3.456,8.012-7.719C16.009,5.71,14.714,3.451,12.727,2.046z M7.424,8.817h1.144
			c0.633,0,1.146-0.493,1.146-1.103V1.099c0-0.609-0.513-1.103-1.146-1.103H7.424c-0.632,0-1.145,0.493-1.145,1.103v6.616
			C6.28,8.324,6.792,8.817,7.424,8.817z"/>
	</g>
</g>
</svg>
