<?xml version="1.0" encoding="utf-8"?>
<!-- Generator: Adobe Illustrator 16.0.0, SVG Export Plug-In . SVG Version: 6.00 Build 0)  -->
<!DOCTYPE svg PUBLIC "-//W3C//DTD SVG 1.1//EN" "http://www.w3.org/Graphics/SVG/1.1/DTD/svg11.dtd">
<svg version="1.1" id="bill_1_" xmlns="http://www.w3.org/2000/svg" xmlns:xlink="http://www.w3.org/1999/xlink" x="0px" y="0px"
	 width="16px" height="16px" viewBox="0 0 16 16" enable-background="new 0 0 16 16" xml:space="preserve">
<g id="bill">
	<g>
		<path fill="#FFFFFF" d="M13.927,0.014H1.076c-0.591,0-1.071,0.478-1.071,1.065v13.856c0,0.236,0.093,0.444,0.224,0.621
			l0.847-1.687l1.071,2.132l1.071-2.132l1.071,2.132l1.071-2.132l1.071,2.132l1.071-2.132l1.071,2.132l1.07-2.132l1.071,2.132
			l1.071-2.132l1.07,2.132l1.071-2.132l0.848,1.687c0.131-0.177,0.224-0.385,0.224-0.621V1.079
			C14.998,0.491,14.518,0.014,13.927,0.014z M5.729,10.397c-0.332,0.343-0.816,0.574-1.451,0.695v1.054
			c-0.15,0.037-0.304,0.055-0.46,0.055c-0.157,0-0.314-0.018-0.471-0.055v-0.963H3.26c-0.235,0-0.446-0.006-0.632-0.018
			c-0.186-0.013-0.362-0.032-0.53-0.06c-0.167-0.027-0.333-0.062-0.498-0.104c-0.165-0.042-0.336-0.094-0.514-0.154
			c0.021-0.176,0.061-0.353,0.118-0.531s0.125-0.365,0.204-0.559c0.3,0.103,0.582,0.174,0.846,0.213
			c0.264,0.04,0.546,0.06,0.846,0.06c0.45,0,0.798-0.065,1.044-0.195C4.39,9.704,4.513,9.494,4.513,9.203
			c0-0.146-0.034-0.265-0.102-0.359C4.344,8.75,4.258,8.673,4.154,8.612S3.935,8.501,3.807,8.458
			C3.678,8.416,3.553,8.37,3.432,8.322L2.864,8.113c-0.236-0.085-0.45-0.175-0.643-0.269C2.029,7.751,1.863,7.639,1.724,7.509
			S1.477,7.226,1.402,7.05C1.327,6.874,1.29,6.659,1.29,6.404c0-0.545,0.182-0.975,0.546-1.29C2.2,4.8,2.704,4.609,3.346,4.542
			V3.579c0.15-0.036,0.303-0.055,0.46-0.055c0.15,0,0.307,0.019,0.471,0.055v0.936c0.285,0.019,0.56,0.054,0.824,0.104
			c0.264,0.052,0.542,0.12,0.835,0.205C5.895,5.175,5.78,5.521,5.595,5.859C5.488,5.823,5.379,5.787,5.268,5.751
			C5.158,5.714,5.04,5.684,4.915,5.66C4.79,5.636,4.649,5.616,4.492,5.601C4.334,5.586,4.156,5.578,3.957,5.578
			c-0.122,0-0.245,0.008-0.37,0.022C3.462,5.616,3.35,5.647,3.25,5.696S3.067,5.812,3.003,5.9C2.939,5.988,2.907,6.102,2.907,6.241
			c0,0.121,0.025,0.225,0.075,0.309C3.032,6.635,3.1,6.706,3.186,6.764c0.085,0.058,0.182,0.107,0.289,0.149
			c0.107,0.043,0.214,0.082,0.321,0.118l0.643,0.228C4.709,7.355,4.956,7.453,5.177,7.55s0.409,0.213,0.562,0.35
			c0.154,0.136,0.273,0.303,0.359,0.5c0.086,0.196,0.128,0.443,0.128,0.74C6.227,9.637,6.061,10.056,5.729,10.397z M13.391,12.804
			h-3.213c-0.295,0-0.535-0.238-0.535-0.532c0-0.295,0.24-0.533,0.535-0.533h3.213c0.297,0,0.536,0.238,0.536,0.533
			C13.927,12.565,13.688,12.804,13.391,12.804z M13.391,10.14H8.572c-0.296,0-0.535-0.239-0.535-0.533s0.239-0.533,0.535-0.533
			h4.818c0.297,0,0.536,0.239,0.536,0.533S13.688,10.14,13.391,10.14z M13.391,7.475H8.572c-0.296,0-0.535-0.238-0.535-0.533
			c0-0.294,0.239-0.532,0.535-0.532h4.818c0.297,0,0.536,0.238,0.536,0.532C13.927,7.236,13.688,7.475,13.391,7.475z M13.391,4.81
			H8.572c-0.296,0-0.535-0.238-0.535-0.532c0-0.295,0.239-0.533,0.535-0.533h4.818c0.297,0,0.536,0.238,0.536,0.533
			C13.927,4.571,13.688,4.81,13.391,4.81z"/>
	</g>
</g>
</svg>
