<?xml version="1.0" encoding="utf-8"?>
<!-- Generator: Adobe Illustrator 16.0.0, SVG Export Plug-In . SVG Version: 6.00 Build 0)  -->
<!DOCTYPE svg PUBLIC "-//W3C//DTD SVG 1.1//EN" "http://www.w3.org/Graphics/SVG/1.1/DTD/svg11.dtd">
<svg version="1.1" id="personal_1_" xmlns="http://www.w3.org/2000/svg" xmlns:xlink="http://www.w3.org/1999/xlink" x="0px"
	 y="0px" width="16px" height="16px" viewBox="0 0 16 16" enable-background="new 0 0 16 16" xml:space="preserve">
<g id="personal">
	<g>
		<path fill="#FFFFFF" d="M7.989,5.875c-1.719,0-3.998,0.532-3.998,0.532l0.571,4.264l1.714,1.066v3.73c0,0,0.851,0.533,1.713,0.533
			c0.851,0,1.714-0.533,1.714-0.533v-3.73l1.713-1.066l0.571-4.264C11.987,6.407,9.697,5.875,7.989,5.875z M7.989,5.342
			c1.577,0,2.855-1.193,2.855-2.665S9.566,0.013,7.989,0.013S5.133,1.205,5.133,2.677S6.412,5.342,7.989,5.342z"/>
	</g>
</g>
</svg>
