<?xml version="1.0" encoding="utf-8"?>
<!-- Generator: Adobe Illustrator 16.0.0, SVG Export Plug-In . SVG Version: 6.00 Build 0)  -->
<!DOCTYPE svg PUBLIC "-//W3C//DTD SVG 1.1//EN" "http://www.w3.org/Graphics/SVG/1.1/DTD/svg11.dtd">
<svg version="1.1" id="gear_2_1_" xmlns="http://www.w3.org/2000/svg" xmlns:xlink="http://www.w3.org/1999/xlink" x="0px" y="0px"
	 width="22px" height="22px" viewBox="0 0 22 22" enable-background="new 0 0 22 22" xml:space="preserve">
<g id="gear_2">
	<g>
		<path fill="#FFFFFF" d="M20.15,8.6h-1.697c-0.17-0.598-0.408-1.166-0.709-1.696l1.223-1.223c0.551-0.55,0.551-1.441,0-1.99
			l-0.994-0.995c-0.551-0.55-1.441-0.55-1.99,0l-1.245,1.244c-0.497-0.271-1.03-0.484-1.587-0.643V1.6
			c0-0.772-0.627-1.399-1.4-1.399h-1.4c-0.773,0-1.4,0.627-1.4,1.399v1.697c-0.577,0.164-1.128,0.39-1.642,0.676L6.03,2.695
			c-0.55-0.55-1.441-0.55-1.99,0L3.045,3.69c-0.55,0.549-0.55,1.44,0,1.99l1.278,1.277C4.036,7.472,3.811,8.022,3.647,8.6H1.95
			c-0.773,0-1.4,0.627-1.4,1.4v1.399c0,0.773,0.627,1.4,1.4,1.4h1.698c0.157,0.557,0.37,1.09,0.642,1.587l-1.245,1.245
			c-0.55,0.55-0.55,1.44,0,1.99l0.995,0.995c0.549,0.55,1.44,0.55,1.99,0l1.223-1.224c0.53,0.302,1.098,0.539,1.696,0.709V19.8
			c0,0.773,0.627,1.4,1.4,1.4h1.4c0.773,0,1.4-0.627,1.4-1.4v-1.697c0.577-0.163,1.127-0.389,1.641-0.676l1.191,1.19
			c0.549,0.55,1.439,0.55,1.99,0l0.994-0.995c0.551-0.55,0.551-1.44,0-1.99l-1.189-1.19c0.286-0.514,0.512-1.064,0.676-1.642h1.697
			c0.773,0,1.399-0.627,1.399-1.4V10C21.55,9.227,20.924,8.6,20.15,8.6z M11.05,14.899c-2.319,0-4.2-1.88-4.2-4.199
			c0-2.32,1.881-4.2,4.2-4.2s4.2,1.88,4.2,4.2C15.25,13.02,13.369,14.899,11.05,14.899z M11.05,8.6c-1.16,0-2.1,0.94-2.1,2.101
			c0,1.159,0.94,2.1,2.1,2.1c1.159,0,2.101-0.94,2.101-2.1C13.15,9.54,12.209,8.6,11.05,8.6z"/>
	</g>
</g>
</svg>
